<?xml version="1.0" encoding="utf-8"?>
<!-- Generator: Adobe Illustrator 28.3.0, SVG Export Plug-In . SVG Version: 6.00 Build 0)  -->
<svg version="1.1" id="Layer_1" xmlns="http://www.w3.org/2000/svg" xmlns:xlink="http://www.w3.org/1999/xlink" x="0px" y="0px"
	 viewBox="0 0 110 135" style="enable-background:new 0 0 110 135;" xml:space="preserve">
<style type="text/css">
	.st0{fill-rule:evenodd;clip-rule:evenodd;fill:#FFFFFF;}
</style>
<path class="st0" d="M46.9,96.8c-2.3-1.1-4.9-1.9-7.7-2.5c-5.5-1.2-11.9-1.6-19.3-1c-0.9,0.1-1.5-0.6-1.5-1.4V44.4l-5.7,0.8v54.5
	C23.8,96.1,35.3,95.2,46.9,96.8L46.9,96.8z M47.7,44.8l3.9,14.4c0.2,0.7,1.1,1.4,2.4,1.9c0.2,0,0.4,0.1,0.5,0.2
	c0.9,0.3,1.9,0.5,3.2,0.6c3.9,0.4,9,0.1,14.5-1.4h0.1c5.3-1.4,9.9-3.6,13.2-5.9c0.5-0.4,1-0.8,1.5-1.1c0.1-0.1,0.2-0.2,0.3-0.2
	c2-1.7,3.1-3.2,2.8-4.3l-3.9-14.4L69.5,47.2c-0.3,0.2-0.7,0.3-1.1,0.3L47.7,44.8L47.7,44.8z M86.6,57v33.4c-7-0.4-13.2,0-18.7,1.2
	c-4.9,1.1-9.1,2.8-12.7,5.2V64.2c0.7,0.1,1.4,0.3,2.1,0.4c4.2,0.5,9.7,0.1,15.6-1.5C78.3,61.6,83.1,59.4,86.6,57L86.6,57z
	 M91.7,44.7l3.3,0.5v54.5c-11.1-3.6-22.6-4.5-34.1-2.9c7.9-3.6,17.4-4.2,27-3.6c0.8,0.1,1.5-0.6,1.5-1.4v-37
	c2.6-2.3,3.9-4.8,3.3-6.7L91.7,44.7L91.7,44.7z M88.5,32.7l2.4,9.1c0.9,0.1,1.6,0.2,2.4,0.3c1,0.1,2.1,0.3,3.2,0.5
	c0.7,0.1,1.2,0.6,1.2,1.4v57.6c0,0.9-0.9,1.6-1.8,1.3c-6.6-2.4-13.4-3.7-20.4-4.1c-6.9-0.4-14,0.3-21.3,1.9c-0.3,0.1-0.5,0.1-0.8,0
	c-7.3-1.6-14.4-2.3-21.3-1.9s-13.7,1.7-20.3,4c-1,0.4-1.9-0.3-1.9-1.3V44c0-0.6,0.5-1.2,1.1-1.3c2.4-0.4,4.8-0.8,7.2-1.1v-4.7
	c0-0.7,0.6-1.3,1.3-1.4c5.5-0.4,11-0.4,16.3,0.4l24.4-18.7c0.3-0.2,0.7-0.3,1.1-0.3l37.3,4.9c1.2,0.2,1.6,1.7,0.6,2.4L88.5,32.7
	L88.5,32.7z M38.4,50.7c0.8,0.5,1.1,1.5,0.6,2.3c-0.7,1.3-2.7,1-3.1-0.4C35.5,51.1,37.1,49.9,38.4,50.7L38.4,50.7z M40.1,55.6
	c0.2,1.4,0,2.9-0.5,4.5c-1.1-1.1-2.1-2.4-2.6-3.6C38.1,56.6,39.2,56.3,40.1,55.6L40.1,55.6z M34.8,40.4L34.8,40.4l26.8-20.6
	l33.6,4.4L68.3,44.8l-22.2-2.9c-0.1,0-0.1,0-0.2,0L35,40.4C35,40.4,34.9,40.4,34.8,40.4L34.8,40.4z M35.1,48.4c-1.6,1-2.3,3-1.9,4.8
	c0.1,0.5,0.4,1,0.7,1.4c0,1.4,0.4,2.8,1.3,4.2c0.9,1.5,2.3,3.1,4.2,4.6c0.7,0.6,1.8,0.3,2.1-0.6c0.9-2.3,1.3-4.3,1.3-6.1
	c0-1.7-0.3-3.1-1-4.3c0.1-0.5,0-1.1-0.1-1.6c-0.5-1.9-2.1-3.1-4-3.2l-1.2-4.4l8.2,1.1l4.1,15.4c0.4,1.4,1.6,2.6,3.6,3.4v33.5
	c-3.6-2.4-7.9-4.1-12.7-5.2C34.3,90.2,28,89.8,21,90.2V38c4-0.2,7.9-0.2,11.8,0.1L30.4,40c-0.9,0.7-0.6,2.3,0.6,2.4l2.5,0.3
	L35.1,48.4L35.1,48.4z M32.3,57.6c0.8,0.1,1.3,0.7,1.2,1.5s-0.7,1.3-1.5,1.2c-2.6-0.2-4.9-0.3-7.5-0.2c-0.8,0-1.4-0.6-1.4-1.3
	c0-0.8,0.6-1.4,1.3-1.4C27.1,57.3,29.7,57.3,32.3,57.6L32.3,57.6z M49.7,73.2c0.7,0.4,0.9,1.2,0.6,1.8c-0.3,0.7-1.2,0.9-1.8,0.6
	c-7-3.7-15.5-4.8-24-4.6c-0.8,0-1.4-0.6-1.4-1.3c0-0.8,0.6-1.4,1.3-1.4C33.4,68.1,42.3,69.3,49.7,73.2L49.7,73.2z M83.3,68.3
	c-8.9-0.2-17.8,1-25.3,4.9c-0.7,0.4-0.9,1.2-0.6,1.8c0.3,0.7,1.2,0.9,1.8,0.6c7-3.7,15.5-4.8,24-4.6c0.8,0,1.4-0.6,1.4-1.3
	C84.6,69,84,68.3,83.3,68.3L83.3,68.3z M49.7,84.2c0.7,0.4,0.9,1.2,0.6,1.8c-0.3,0.7-1.2,0.9-1.8,0.6c-7-3.7-15.5-4.8-24-4.6
	c-0.8,0-1.4-0.6-1.4-1.3c0-0.8,0.6-1.4,1.3-1.4C33.4,79.1,42.3,80.3,49.7,84.2L49.7,84.2z M83.3,79.3c-8.9-0.2-17.8,1-25.3,4.9
	c-0.7,0.4-0.9,1.2-0.6,1.8c0.3,0.7,1.2,0.9,1.8,0.6c7-3.7,15.5-4.8,24-4.6c0.8,0,1.4-0.6,1.4-1.3C84.6,79.9,84,79.3,83.3,79.3
	L83.3,79.3z"/>
</svg>
